<svg xmlns="http://www.w3.org/2000/svg" viewBox="0 0 166.36 163.53"><title>small blob 1</title><g id="Layer_2" data-name="Layer 2"><g id="Layer_5" data-name="Layer 5"><path d="M.56,38.19c2.71,12.67,13,22.69,15.69,35.37,1.91,9.07-.33,18.46-2.89,27.38s-5.47,18-4.92,27.23,5.47,18.94,14.18,22.1c9.88,3.59,20.57-2,31.08-2.4,12-.4,22.92,6,34.16,10.13a91.57,91.57,0,0,0,44.22,4.61c8.56-1.23,17.23-3.84,23.7-9.57,9.76-8.63,12.74-23.41,9-35.89S151.5,94.51,140.21,88s-24.54-9.83-34.48-18.27C91.57,57.7,87,37.87,75.45,23.26,65,10,44.17-2.13,26.54.32,9.88,2.63-2.87,22.13.56,38.19Z"/></g></g></svg>