<svg xmlns="http://www.w3.org/2000/svg" viewBox="0 0 168.73 114.95"><title>small blob 5</title><g id="Layer_2" data-name="Layer 2"><g id="Layer_5" data-name="Layer 5"><path d="M21,89.53c6,.71,12,.22,18,.74,14.06,1.23,26.95,8,39.86,13.65,11.92,5.27,24.39,9.79,37.38,10.83s26.68-1.73,36.92-9.8a41.84,41.84,0,0,0,15.35-37A41.84,41.84,0,0,0,145,35.49c-13.92-6.48-31.27-5.11-43.34-14.61C93.17,14.18,87.81,2.47,77.2.32,70.39-1.06,63.42,2.18,58,6.54S48.2,16.4,42.78,20.75c-6.6,5.3-14.48,8.73-21.88,12.85C7.34,41.17-1.44,50.84.2,66.94,1.47,79.5,7.69,87.94,21,89.53Z"/></g></g></svg>