<svg xmlns="http://www.w3.org/2000/svg" viewBox="0 0 1384.66 803.07"><title>Asset 9</title><g id="Layer_2" data-name="Layer 2"><g id="Layer_3" data-name="Layer 3"><path d="M1384.66,0H0S0,99.75,0,99.92c37.06,36.15,59.35,90.8,66.93,143.42C78.24,321.66,66.61,402,79,480.2s59,160.14,136.4,176.52c100.68,21.3,196.41-76.37,298.11-60.66,87.81,13.56,152,108.42,240.82,105.44,53.11-1.78,98.31-39,150-51.34,63.83-15.21,130.56,9.08,187.67,41.4s109.93,73.26,171.48,96c38.21,14.13,81.79,19.84,121.18,11.83C1384.66,644.7,1384.66,0,1384.66,0Z"/></g></g></svg>