<svg xmlns="http://www.w3.org/2000/svg" xmlns:xlink="http://www.w3.org/1999/xlink" viewBox="0 0 222.73 480.03"><defs><style>.a,.c{fill:none;}.b{clip-path:url(#a);}.c{stroke:#000;}.d{opacity:0.13;}</style><clipPath id="a" transform="translate(50.77 33.44)"><rect class="a" width="430" height="285"/></clipPath></defs><title>money</title><g class="b"><path class="c" d="M162,234.46C162,189,134.34,168,98.77,152.53L83.6,146V40.3C102,44.54,117.51,54,131.06,66.86l21.08-25.27a127.33,127.33,0,0,0-68.54-36V-32.94H73.5V4.25c-4-.38-8.08-.59-12.2-.59A127.74,127.74,0,0,0,44.6,4.74V-32.94H34.5V6.52C-7,15.71-35.11,46.21-35.11,85.12c0,44.94,33.24,67,62.25,79.11l7.37,3.22V285.06c-23.17-5.42-44.69-18.41-61.2-35.62l-23.4,27.14a148.56,148.56,0,0,0,84.6,43.68V423c0,8.74,3.08,13.54,10.71,13.54a13.56,13.56,0,0,0,5.78-1L49.65,428a8.33,8.33,0,0,1-2.22.25c-1.48,0-2.83-1.23-2.83-4.44V321.45c4.27.36,8.59.55,13,.55a150.82,150.82,0,0,0,15.94-.83V423c0,8.74,3.08,13.54,10.71,13.54a13.56,13.56,0,0,0,5.78-1L88.65,428a8.33,8.33,0,0,1-2.22.25c-1.48,0-2.83-1.23-2.83-4.44V319.72C132.69,310.74,162,276.21,162,234.46Zm-39.78,3.26c0,22.92-14,40.08-38.58,46.89V189.15C106.23,199.95,122.18,211,122.18,237.72ZM61.3,37.83a102.79,102.79,0,0,1,12.2.72V141.67l-18.28-7.86c-3.52-1.49-7.09-3-10.62-4.59V39.37A87.77,87.77,0,0,1,61.3,37.83ZM4.2,82.77c0-19.54,11.49-33.91,30.3-40.66v82.25C17.84,115.61,4.2,103.86,4.2,82.77ZM58,287.83a101.06,101.06,0,0,1-13.45-.92V171.85l26.54,11.57,2.37,1.07V286.73A105.52,105.52,0,0,1,58,287.83Z" transform="translate(50.77 33.44)"/><path class="d" d="M172,244.46c0-45.42-27.62-66.48-63.18-81.93L93.6,156V50.3C112,54.54,127.51,64,141.06,76.86l21.08-25.27a127.33,127.33,0,0,0-68.54-36V-22.94H83.5V14.25c-4-.38-8.08-.59-12.2-.59a127.74,127.74,0,0,0-16.7,1.08V-22.94H44.5V16.52C3,25.71-25.11,56.21-25.11,95.12c0,44.94,33.24,67,62.25,79.11l7.37,3.22V295.06c-23.17-5.42-44.69-18.41-61.2-35.62l-23.4,27.14a148.56,148.56,0,0,0,84.6,43.68V433c0,8.74,3.08,13.54,10.71,13.54a13.56,13.56,0,0,0,5.78-1L59.65,438a8.33,8.33,0,0,1-2.22.25c-1.48,0-2.83-1.23-2.83-4.44V331.45c4.27.36,8.59.55,13,.55a150.82,150.82,0,0,0,15.94-.83V433c0,8.74,3.08,13.54,10.71,13.54a13.56,13.56,0,0,0,5.78-1L98.65,438a8.33,8.33,0,0,1-2.22.25c-1.48,0-2.83-1.23-2.83-4.44V329.72C142.69,320.74,172,286.21,172,244.46Zm-39.78,3.26c0,22.92-14,40.08-38.58,46.89V199.15C116.23,209.95,132.18,221,132.18,247.72ZM71.3,47.83a102.79,102.79,0,0,1,12.2.72V151.67l-18.28-7.86c-3.52-1.49-7.09-3-10.62-4.59V49.37A87.77,87.77,0,0,1,71.3,47.83ZM14.2,92.77c0-19.54,11.49-33.91,30.3-40.66v82.25C27.84,125.61,14.2,113.86,14.2,92.77ZM68,297.83a101.06,101.06,0,0,1-13.45-.92V181.85l26.54,11.57,2.37,1.07V296.73A105.52,105.52,0,0,1,68,297.83Z" transform="translate(50.77 33.44)"/></g></svg>